<svg xmlns="http://www.w3.org/2000/svg" width="185" height="111" viewBox="0 0 185 111" fill="none"><g clip-path="url(#clip0)"><path d="M0 36.0459C0 19.0754 0 10.5901 5.27208 5.31804C10.5442 0.0459595 19.0294 0.0459595 36 0.0459595H149.617C166.588 0.0459595 175.073 0.0459595 180.345 5.31804C185.617 10.5901 185.617 19.0754 185.617 36.046V75C185.617 91.9706 185.617 100.456 180.345 105.728C175.073 111 166.588 111 149.617 111H36C19.0294 111 10.5442 111 5.27208 105.728C0 100.456 0 91.9706 0 75V36.0459Z" fill="#02131B"></path><path d="M32.0145 32.2136V27.6536H14.4145V32.8136H25.3745L19.8545 40.0136L21.9745 43.2136H23.1745C26.0145 43.2136 27.6545 44.7336 27.6545 47.0136C27.6545 49.3736 26.0145 50.8136 23.1745 50.8136C20.6145 50.8136 18.9745 49.7336 18.2945 47.5736L13.5745 50.2936C15.1345 54.1736 18.8145 56.2136 23.1745 56.2136C25.9745 56.2136 28.3345 55.4136 30.2545 53.7736C32.2145 52.1336 33.1745 49.8936 33.1745 47.0136C33.1745 43.0536 30.5745 40.1336 26.7745 39.0136L32.0145 32.2136ZM47.0514 56.2136C50.5714 56.2136 53.3314 54.8936 55.2914 52.2536C57.2514 49.5736 58.2514 46.0536 58.2514 41.6536C58.2514 37.2536 57.2514 33.7336 55.2914 31.0936C53.3314 28.4136 50.5714 27.0936 47.0514 27.0936C43.5714 27.0936 40.8114 28.4136 38.8114 31.0936C36.8514 33.7336 35.8514 37.2536 35.8514 41.6536C35.8514 46.0536 36.8514 49.5736 38.8114 52.2536C40.8114 54.8936 43.5714 56.2136 47.0514 56.2136ZM52.7714 41.6536C52.7714 47.5736 50.7714 50.8136 47.0514 50.8136C43.3314 50.8136 41.3714 47.6136 41.3714 41.6536C41.3714 35.6936 43.3314 32.4536 47.0514 32.4536C50.7714 32.4536 52.7714 35.6936 52.7714 41.6536ZM72.2467 56.2136C75.7667 56.2136 78.5267 54.8936 80.4867 52.2536C82.4467 49.5736 83.4467 46.0536 83.4467 41.6536C83.4467 37.2536 82.4467 33.7336 80.4867 31.0936C78.5267 28.4136 75.7667 27.0936 72.2467 27.0936C68.7667 27.0936 66.0067 28.4136 64.0067 31.0936C62.0467 33.7336 61.0467 37.2536 61.0467 41.6536C61.0467 46.0536 62.0467 49.5736 64.0067 52.2536C66.0067 54.8936 68.7667 56.2136 72.2467 56.2136ZM77.9667 41.6536C77.9667 47.5736 75.9667 50.8136 72.2467 50.8136C68.5267 50.8136 66.5667 47.6136 66.5667 41.6536C66.5667 35.6936 68.5267 32.4536 72.2467 32.4536C75.9667 32.4536 77.9667 35.6936 77.9667 41.6536ZM97.362 45.5336L105.402 35.6536H99.242L92.362 44.4536V27.6536H87.202V55.6536H92.362V46.5736L99.642 55.6536H105.642L97.362 45.5336ZM117.776 39.2136V32.6536H112.936V39.2136H106.376V44.0536H112.936V50.6536H117.776V44.0536H124.376V39.2136H117.776Z" fill="url(#paint0_linear)"></path><path d="M18.1372 74.669H16.6492V85.869H22.9692V84.461H18.1372V74.669ZM25.0217 76.413C25.5337 76.413 25.9497 75.997 25.9497 75.485C25.9497 74.973 25.5337 74.541 25.0217 74.541C24.4937 74.541 24.0777 74.973 24.0777 75.485C24.0777 75.997 24.4937 76.413 25.0217 76.413ZM25.7097 85.869V77.869H24.3177V85.869H25.7097ZM31.8173 77.661C30.6493 77.661 29.7853 78.109 29.2253 79.021V77.869H27.8333V85.869H29.2253V81.629C29.2253 79.837 30.1533 78.989 31.5453 78.989C32.7773 78.989 33.5293 79.741 33.5293 81.037V85.869H34.9213V80.957C34.9213 78.925 33.6893 77.661 31.8173 77.661ZM39.6806 81.741L43.5046 77.869H41.7126L38.2566 81.405V74.669H36.8646V85.869H38.2566V82.077L41.9046 85.869H43.6326L39.6806 81.741ZM51.8727 82.509C51.9047 82.301 51.9207 82.093 51.9207 81.885C51.9207 80.717 51.5527 79.725 50.8007 78.909C50.0647 78.077 49.1047 77.661 47.9367 77.661C46.7047 77.661 45.6967 78.061 44.9127 78.861C44.1287 79.661 43.7447 80.669 43.7447 81.869C43.7447 83.085 44.1447 84.093 44.9287 84.893C45.7287 85.677 46.7687 86.077 48.0327 86.077C49.6007 86.077 50.7687 85.469 51.5527 84.269L50.3687 83.597C49.8887 84.381 49.1207 84.765 48.0647 84.765C46.5447 84.765 45.4407 83.933 45.1687 82.509H51.8727ZM47.9367 78.973C49.2167 78.973 50.2727 79.773 50.5127 81.293H45.1687C45.4087 79.885 46.4487 78.973 47.9367 78.973ZM60.1292 79.245C59.4412 78.189 58.4332 77.661 57.1052 77.661C55.9852 77.661 55.0252 78.077 54.2412 78.893C53.4572 79.709 53.0572 80.701 53.0572 81.869C53.0572 83.037 53.4572 84.045 54.2412 84.861C55.0252 85.677 55.9852 86.077 57.1052 86.077C58.4332 86.077 59.4412 85.549 60.1292 84.493V85.869H61.5212V74.669H60.1292V79.245ZM57.2812 84.733C56.4812 84.733 55.8092 84.461 55.2652 83.917C54.7212 83.357 54.4492 82.685 54.4492 81.869C54.4492 81.053 54.7212 80.381 55.2652 79.837C55.8092 79.277 56.4812 79.005 57.2812 79.005C58.0972 79.005 58.7692 79.277 59.3132 79.837C59.8572 80.381 60.1292 81.053 60.1292 81.869C60.1292 82.685 59.8572 83.357 59.3132 83.917C58.7692 84.461 58.0972 84.733 57.2812 84.733ZM64.3342 76.413C64.8462 76.413 65.2622 75.997 65.2622 75.485C65.2622 74.973 64.8462 74.541 64.3342 74.541C63.8062 74.541 63.3902 74.973 63.3902 75.485C63.3902 75.997 63.8062 76.413 64.3342 76.413ZM65.0222 85.869V77.869H63.6302V85.869H65.0222ZM71.1298 77.661C69.9618 77.661 69.0978 78.109 68.5378 79.021V77.869H67.1458V85.869H68.5378V81.629C68.5378 79.837 69.4658 78.989 70.8578 78.989C72.0898 78.989 72.8418 79.741 72.8418 81.037V85.869H74.2338V80.957C74.2338 78.925 73.0018 77.661 71.1298 77.661ZM86.7691 74.669H80.3211V85.869H81.8091V81.117H86.5611V79.709H81.8091V76.077H86.7691V74.669ZM95.1791 84.861C95.9951 84.045 96.4111 83.053 96.4111 81.869C96.4111 80.685 95.9951 79.693 95.1791 78.877C94.3631 78.061 93.3551 77.661 92.1871 77.661C91.0191 77.661 90.0111 78.061 89.1951 78.877C88.3791 79.693 87.9791 80.685 87.9791 81.869C87.9791 83.053 88.3791 84.045 89.1951 84.861C90.0111 85.677 91.0191 86.077 92.1871 86.077C93.3551 86.077 94.3631 85.677 95.1791 84.861ZM92.1871 84.717C91.4031 84.717 90.7311 84.445 90.1871 83.901C89.6431 83.357 89.3711 82.685 89.3711 81.869C89.3711 81.053 89.6431 80.381 90.1871 79.837C90.7311 79.293 91.4031 79.021 92.1871 79.021C92.9871 79.021 93.6591 79.293 94.2031 79.837C94.7471 80.381 95.0191 81.053 95.0191 81.869C95.0191 82.685 94.7471 83.357 94.2031 83.901C93.6591 84.445 92.9871 84.717 92.1871 84.717ZM99.4441 85.869V74.189H98.0521V85.869H99.4441ZM102.96 85.869V74.189H101.568V85.869H102.96ZM111.835 84.861C112.651 84.045 113.067 83.053 113.067 81.869C113.067 80.685 112.651 79.693 111.835 78.877C111.019 78.061 110.011 77.661 108.843 77.661C107.675 77.661 106.667 78.061 105.851 78.877C105.035 79.693 104.635 80.685 104.635 81.869C104.635 83.053 105.035 84.045 105.851 84.861C106.667 85.677 107.675 86.077 108.843 86.077C110.011 86.077 111.019 85.677 111.835 84.861ZM108.843 84.717C108.059 84.717 107.387 84.445 106.843 83.901C106.299 83.357 106.027 82.685 106.027 81.869C106.027 81.053 106.299 80.381 106.843 79.837C107.387 79.293 108.059 79.021 108.843 79.021C109.643 79.021 110.315 79.293 110.859 79.837C111.403 80.381 111.675 81.053 111.675 81.869C111.675 82.685 111.403 83.357 110.859 83.901C110.315 84.445 109.643 84.717 108.843 84.717ZM122.06 83.965L120.172 77.869H118.828L116.94 83.949L115.18 77.869H113.724L116.204 85.869H117.628L119.5 79.949L121.372 85.869H122.796L125.276 77.869H123.82L122.06 83.965ZM134.076 82.509C134.108 82.301 134.124 82.093 134.124 81.885C134.124 80.717 133.756 79.725 133.004 78.909C132.268 78.077 131.308 77.661 130.14 77.661C128.908 77.661 127.9 78.061 127.116 78.861C126.332 79.661 125.948 80.669 125.948 81.869C125.948 83.085 126.348 84.093 127.132 84.893C127.932 85.677 128.972 86.077 130.236 86.077C131.804 86.077 132.972 85.469 133.756 84.269L132.572 83.597C132.092 84.381 131.324 84.765 130.268 84.765C128.748 84.765 127.644 83.933 127.372 82.509H134.076ZM130.14 78.973C131.42 78.973 132.476 79.773 132.716 81.293H127.372C127.612 79.885 128.652 78.973 130.14 78.973ZM137.116 77.869H135.724V85.869H137.116V81.629C137.116 80.749 137.356 80.125 137.852 79.725C138.348 79.325 138.924 79.149 139.612 79.181V77.725C138.412 77.725 137.58 78.221 137.116 79.213V77.869ZM141.877 80.029C141.877 79.341 142.517 78.957 143.301 78.957C144.149 78.957 144.725 79.293 145.013 79.981L146.181 79.325C145.669 78.285 144.597 77.661 143.301 77.661C142.485 77.661 141.813 77.885 141.269 78.333C140.741 78.781 140.469 79.357 140.469 80.045C140.469 81.741 142.101 82.157 143.365 82.493C144.245 82.701 144.949 83.053 144.949 83.677C144.949 84.429 144.277 84.765 143.365 84.765C142.389 84.765 141.637 84.285 141.381 83.517L140.181 84.205C140.645 85.341 141.813 86.077 143.365 86.077C144.245 86.077 144.949 85.853 145.509 85.421C146.069 84.989 146.357 84.397 146.357 83.677C146.373 81.965 144.709 81.501 143.461 81.229C142.581 80.989 141.877 80.653 141.877 80.029Z" fill="white"></path><path d="M183.814 10.9904C179.628 13.4073 174.276 11.9981 171.88 7.84803C169.484 3.69794 170.94 -1.64122 175.126 -4.05811C179.312 -6.47501 184.664 -5.06586 187.06 -0.915769C189.456 3.23432 188 8.57349 183.814 10.9904ZM130.686 41.6637C126.5 44.0806 121.149 42.6714 118.753 38.5213C116.357 34.3713 117.812 29.0321 121.998 26.6152C126.184 24.1983 131.536 25.6074 133.932 29.7575C136.328 33.9076 134.873 39.2468 130.686 41.6637ZM129.064 47.6168L136.653 43.2349C138.74 42.0298 141.108 41.7759 143.264 42.3337C139.985 47.6912 139.302 54.3402 141.784 60.3374L133.957 64.8562C131.858 66.0681 129.192 65.366 127.99 63.285L125.818 59.5229C123.422 55.3728 124.877 50.0337 129.064 47.6168ZM159.422 30.0892C152.082 34.3273 142.74 31.8674 138.538 24.5901C134.337 17.3127 136.877 7.99241 144.218 3.75429C151.559 -0.483826 160.9 1.97604 165.102 9.2534C169.304 16.5308 166.763 25.851 159.422 30.0892ZM152.487 39.1096L153.471 38.5413C156.616 38.2928 159.763 37.4166 162.68 35.7323C165.598 34.048 167.918 31.7679 169.718 29.1613L170.702 28.593C178.244 24.2385 187.866 26.772 192.183 34.2492L194.138 37.6351C195.936 40.7506 194.846 44.7504 191.704 46.5647L157.55 66.2833C154.407 68.0977 150.398 67.042 148.6 63.9265L146.645 60.5406C142.328 53.0634 144.945 43.4641 152.487 39.1096ZM178.106 22.2181C178.701 20.0718 180.104 18.1485 182.191 16.9435L189.781 12.5616C193.967 10.1447 199.319 11.5538 201.715 15.7039L203.887 19.466C205.088 21.5469 204.363 24.2072 202.264 25.4191L194.449 29.9311C190.485 24.7898 184.385 22.057 178.106 22.2181Z" fill="#068585" fill-opacity="0.1"></path></g><defs><linearGradient id="paint0_linear" x1="9.06634" y1="44.6536" x2="126.655" y2="44.6536" gradientUnits="userSpaceOnUse"><stop stop-color="#1BD18E"></stop><stop offset="1" stop-color="#01AEAE"></stop></linearGradient><clipPath id="clip0"><rect width="185" height="111" rx="20" fill="white"></rect></clipPath></defs></svg>